# xmcd
#
# Track frame offsets:
#	150
#	21340
#	35578
#	51251
#	64653
#	81346
#	98259
#	115959
#	134627
#	151957
#
# Disc length: 2244 seconds
#
# Revision: 1364127124
# Processed by: cddbd v1.5.2PL0 Copyright (c) Steve Scherf et al.
# Submitted via: EZCDAudioConverter 8.0.2.1
#
DISCID=8208c20a
DTITLE=Đông Nhi - The First Step, Vol. 1
DYEAR=2010
DGENRE=World Pop
TTITLE0=Khóc
TTITLE1=Lời thú tội ngọt ngào
TTITLE2=Bối rối
TTITLE3=Ngọt ngào
TTITLE4=30 ngày yêu
TTITLE5=Ác mộng của những giấc mơ
TTITLE6=Gương
TTITLE7=Tìm anh
TTITLE8=Lạnh lùng
TTITLE9=Khi mưa
EXTD=
EXTT0=
EXTT1=
EXTT2=
EXTT3=
EXTT4=
EXTT5=
EXTT6=
EXTT7=
EXTT8=
EXTT9=
PLAYORDER=
